<svg xmlns="http://www.w3.org/2000/svg" viewBox="0 0 520 580" width="520" height="580">
  <defs>
    <pattern id="wood" patternUnits="userSpaceOnUse" width="100" height="100">
      <rect width="100" height="100" fill="#f4e4c1"/>
      <path d="M0,0 Q50,20 100,0 M0,30 Q50,50 100,30 M0,60 Q50,80 100,60 M0,90 Q50,110 100,90" 
            stroke="#e8d5a3" stroke-width="0.5" fill="none"/>
    </pattern>
  </defs>
  
  <rect width="520" height="580" fill="url(#wood)" rx="8"/>
  <rect x="10" y="10" width="500" height="560" fill="none" stroke="#8B4513" stroke-width="3" rx="4"/>
  
  <g stroke="#333" stroke-width="1.5" fill="none">
    <g id="grid">
      <g id="horizontal-lines">
        <line x1="35" y1="35" x2="485" y2="35"/>
        <line x1="35" y1="90" x2="485" y2="90"/>
        <line x1="35" y1="145" x2="485" y2="145"/>
        <line x1="35" y1="200" x2="485" y2="200"/>
        <line x1="35" y1="255" x2="485" y2="255"/>
        <line x1="35" y1="310" x2="485" y2="310"/>
        <line x1="35" y1="365" x2="485" y2="365"/>
        <line x1="35" y1="420" x2="485" y2="420"/>
        <line x1="35" y1="475" x2="485" y2="475"/>
        <line x1="35" y1="530" x2="485" y2="530"/>
      </g>
      
      <g id="vertical-lines-top">
        <line x1="35" y1="35" x2="35" y2="255"/>
        <line x1="90" y1="35" x2="90" y2="255"/>
        <line x1="145" y1="35" x2="145" y2="255"/>
        <line x1="200" y1="35" x2="200" y2="255"/>
        <line x1="255" y1="35" x2="255" y2="255"/>
        <line x1="310" y1="35" x2="310" y2="255"/>
        <line x1="365" y1="35" x2="365" y2="255"/>
        <line x1="420" y1="35" x2="420" y2="255"/>
        <line x1="485" y1="35" x2="485" y2="255"/>
      </g>
      
      <g id="vertical-lines-bottom">
        <line x1="35" y1="310" x2="35" y2="530"/>
        <line x1="90" y1="310" x2="90" y2="530"/>
        <line x1="145" y1="310" x2="145" y2="530"/>
        <line x1="200" y1="310" x2="200" y2="530"/>
        <line x1="255" y1="310" x2="255" y2="530"/>
        <line x1="310" y1="310" x2="310" y2="530"/>
        <line x1="365" y1="310" x2="365" y2="530"/>
        <line x1="420" y1="310" x2="420" y2="530"/>
        <line x1="485" y1="310" x2="485" y2="530"/>
      </g>
    </g>
    
    <g id="palace-diagonals" stroke-width="1.5">
      <line x1="200" y1="35" x2="310" y2="145"/>
      <line x1="310" y1="35" x2="200" y2="145"/>
      <line x1="200" y1="420" x2="310" y2="530"/>
      <line x1="310" y1="420" x2="200" y2="530"/>
    </g>
    
    <g id="river-markers" font-family="KaiTi, STKaiti, serif" font-size="24" fill="#666" stroke="none">
      <text x="160" y="290">楚 河</text>
      <text x="320" y="290">汉 界</text>
    </g>
    
    <g id="position-markers" stroke="#333" stroke-width="1">
      <g id="cross-top">
        <path d="M25,45 L30,45 M30,40 L30,50 M25,50 L30,50"/>
        <path d="M80,45 L85,45 M80,40 L80,50 M80,50 L85,50"/>
        <path d="M25,100 L30,100 M30,95 L30,105 M25,105 L30,105"/>
        <path d="M80,100 L85,100 M80,95 L80,105 M80,105 L85,105"/>
        <path d="M25,155 L30,155 M30,150 L30,160 M25,160 L30,160"/>
        <path d="M80,155 L85,155 M80,150 L80,160 M80,160 L85,160"/>
        <path d="M25,210 L30,210 M30,205 L30,215 M25,215 L30,215"/>
        <path d="M80,210 L85,210 M80,205 L80,215 M80,215 L85,215"/>
        
        <path d="M135,45 L140,45 M140,40 L140,50 M135,50 L140,50"/>
        <path d="M190,45 L195,45 M190,40 L190,50 M190,50 L195,50"/>
        <path d="M245,45 L250,45 M250,40 L250,50 M245,50 L250,50"/>
        <path d="M300,45 L305,45 M300,40 L300,50 M300,50 L305,50"/>
        <path d="M355,45 L360,45 M360,40 L360,50 M355,50 L360,50"/>
        <path d="M410,45 L415,45 M410,40 L410,50 M410,50 L415,50"/>
        
        <path d="M135,100 L140,100 M140,95 L140,105 M135,105 L140,105"/>
        <path d="M190,100 L195,100 M190,95 L190,105 M190,105 L195,105"/>
        <path d="M355,100 L360,100 M360,95 L360,105 M355,105 L360,105"/>
        <path d="M410,100 L415,100 M410,95 L410,105 M410,105 L415,105"/>
        
        <path d="M135,155 L140,155 M140,150 L140,160 M135,160 L140,160"/>
        <path d="M190,155 L195,155 M190,150 L190,160 M190,160 L195,160"/>
        <path d="M355,155 L360,155 M360,150 L360,160 M355,160 L360,160"/>
        <path d="M410,155 L415,155 M410,150 L410,160 M410,160 L415,160"/>
        
        <path d="M135,210 L140,210 M140,205 L140,215 M135,215 L140,215"/>
        <path d="M190,210 L195,210 M190,205 L190,215 M190,215 L195,215"/>
        <path d="M355,210 L360,210 M360,205 L360,215 M355,215 L360,215"/>
        <path d="M410,210 L415,210 M410,205 L410,215 M410,215 L415,215"/>
      </g>
      
      <g id="cross-bottom">
        <path d="M25,320 L30,320 M30,315 L30,325 M25,325 L30,325"/>
        <path d="M80,320 L85,320 M80,315 L80,325 M80,325 L85,325"/>
        <path d="M25,375 L30,375 M30,370 L30,380 M25,380 L30,380"/>
        <path d="M80,375 L85,375 M80,370 L80,380 M80,380 L85,380"/>
        <path d="M25,430 L30,430 M30,425 L30,435 M25,435 L30,435"/>
        <path d="M80,430 L85,430 M80,425 L80,435 M80,435 L85,435"/>
        <path d="M25,485 L30,485 M30,480 L30,490 M25,490 L30,490"/>
        <path d="M80,485 L85,485 M80,480 L80,490 M80,490 L85,490"/>
        
        <path d="M135,320 L140,320 M140,315 L140,325 M135,325 L140,325"/>
        <path d="M190,320 L195,320 M190,315 L190,325 M190,325 L195,325"/>
        <path d="M245,320 L250,320 M250,315 L250,325 M245,325 L250,325"/>
        <path d="M300,320 L305,320 M300,315 L300,325 M300,325 L305,325"/>
        <path d="M355,320 L360,320 M360,315 L360,325 M355,325 L360,325"/>
        <path d="M410,320 L415,320 M410,315 L410,325 M410,325 L415,325"/>
        
        <path d="M135,375 L140,375 M140,370 L140,380 M135,380 L140,380"/>
        <path d="M190,375 L195,375 M190,370 L190,380 M190,380 L195,380"/>
        <path d="M355,375 L360,375 M360,370 L360,380 M355,380 L360,380"/>
        <path d="M410,375 L415,375 M410,370 L410,380 M410,380 L415,380"/>
        
        <path d="M135,430 L140,430 M140,425 L140,435 M135,435 L140,435"/>
        <path d="M190,430 L195,430 M190,425 L190,435 M190,435 L195,435"/>
        <path d="M355,430 L360,430 M360,425 L360,435 M355,435 L360,435"/>
        <path d="M410,430 L415,430 M410,425 L410,435 M410,435 L415,435"/>
        
        <path d="M135,485 L140,485 M140,480 L140,490 M135,490 L140,490"/>
        <path d="M190,485 L195,485 M190,480 L190,490 M190,490 L195,490"/>
        <path d="M355,485 L360,485 M360,480 L360,490 M355,490 L360,490"/>
        <path d="M410,485 L415,485 M410,480 L410,490 M410,490 L415,490"/>
      </g>
    </g>
  </g>
</svg>
